<svg version="1.2" xmlns="http://www.w3.org/2000/svg" viewBox="0 0 2048 2048" width="2048" height="2048">
	<style>
		.s0 { opacity: .99;fill: #c7a96d } 
	</style>
	<path id="Path 0" fill-rule="evenodd" class="s0" d="m496.44 36.86c0 0.73 1.76 5.63 3.9 10.88 2.14 5.25 8.58 20.13 14.31 33.08 5.73 12.94 14.01 32.13 18.4 42.63 4.38 10.5 14.67 35.88 22.86 56.39 8.19 20.52 20.11 51.69 26.49 69.28 6.37 17.58 15.44 43.16 20.15 56.84 4.71 13.67 11.77 35.06 15.69 47.51 3.92 12.46 10.25 33.24 14.07 46.18 3.82 12.95 9.95 34.33 13.63 47.52 3.67 13.19 8.29 30.37 10.25 38.19 1.96 7.81 5.41 22 7.65 31.52 2.25 9.53 6.1 26.32 8.55 37.31 2.46 10.99 5.81 26.57 7.46 34.63 1.64 8.06 5.01 26.05 7.48 39.97 2.48 13.92 6.3 36.9 8.51 51.06 2.2 14.17 5.18 36.35 6.63 49.29 1.45 12.95 3.43 32.33 4.41 43.08 0.97 10.74 2.37 27.33 3.11 36.86 0.73 9.52 1.74 23.71 2.24 31.52 0.49 7.82 1.3 27.2 1.79 43.08 0.6 19.32 0.6 37.08 0 53.73-0.49 13.68-1.29 30.46-1.78 37.3-0.49 6.84-1.5 20.03-2.25 29.31-0.75 9.28-1.95 22.87-2.67 30.19-0.73 7.33-1.72 16.32-2.21 19.99-0.5 3.66-1.5 7.46-2.23 8.43-1.31 1.75-1.37 1.74-3.31-0.73-1.08-1.38-6.69-11.77-12.47-23.09-5.78-11.32-13.33-25.78-16.77-32.13-3.45-6.35-8.87-15.94-12.04-21.31-3.18-5.38-9.37-15.17-13.77-21.76-4.39-6.6-11.67-17.19-16.18-23.54-4.5-6.35-11.92-16.34-16.48-22.2-4.57-5.86-14.18-17.85-21.36-26.64-7.18-8.8-17.33-20.99-22.55-27.09-5.22-6.11-16.96-19.04-26.07-28.75-9.12-9.7-24.37-25.09-33.89-34.2-9.53-9.1-23.51-21.96-31.09-28.57-7.57-6.61-19.96-17.23-27.53-23.6-7.57-6.36-21.76-17.94-31.53-25.73-9.76-7.78-25.75-19.91-35.52-26.96-9.77-7.05-27.35-19.29-39.08-27.2-11.72-7.91-27.11-18.09-34.19-22.62-7.08-4.52-17.27-10.92-22.65-14.21-5.37-3.29-16.76-10.07-25.31-15.06-8.55-4.99-24.93-14.29-36.41-20.66-11.48-6.37-29.26-15.89-39.52-21.16-10.26-5.27-25.45-12.75-33.75-16.62-8.3-3.87-17.9-8.11-21.32-9.43-3.41-1.32-6.55-2.08-6.97-1.68-0.41 0.4 0.1 2.52 1.15 4.72 1.05 2.2 6.98 10.81 13.19 19.14 6.21 8.33 15.92 21.92 21.59 30.2 5.67 8.28 14.7 21.64 20.08 29.7 5.37 8.06 14.56 22.65 20.41 32.42 5.85 9.77 14.95 25.55 20.23 35.08 5.28 9.52 13.31 24.51 17.84 33.3 4.54 8.8 12.23 24.58 17.1 35.08 4.86 10.51 12.33 27.09 16.59 36.86 4.26 9.77 10.14 23.76 13.06 31.08 2.93 7.33 8.9 23.92 13.28 36.86 4.38 12.95 11.17 33.73 15.09 46.18 3.92 12.46 10.25 35.04 14.07 50.18 3.82 15.15 8.78 36.13 11.02 46.63 2.25 10.5 5.3 25.69 6.77 33.75 1.48 8.06 4.45 25.24 6.61 38.19 2.16 12.94 4.73 29.13 5.7 35.97 0.98 6.83 2.21 18.42 2.74 25.75 0.53 7.33 1.36 22.71 1.85 34.19 0.49 11.48 1.15 64.24 1.45 117.23l0.55 96.37c15.23 10.32 29.85 20.46 42.33 29.19 12.48 8.73 29.68 20.9 38.22 27.06 8.55 6.15 26.34 19.15 39.53 28.89 13.18 9.74 33.37 24.91 44.85 33.72 11.47 8.8 29.26 22.62 39.52 30.7 10.25 8.08 25.04 19.87 32.86 26.2 7.81 6.33 18 14.72 22.64 18.65 4.64 3.92 16.83 14.33 27.09 23.12 10.26 8.79 23.65 20.38 29.75 25.74 6.11 5.37 16.5 14.54 23.09 20.38 6.6 5.85 23.77 21.65 38.17 35.12 14.4 13.48 41.53 39.69 60.3 58.25 18.76 18.56 43.15 43.35 54.19 55.09 11.05 11.73 27.91 29.92 37.47 40.41 9.56 10.48 23.35 25.88 30.64 34.21 7.29 8.32 19.93 23.31 28.09 33.3 8.17 9.99 20.5 25.36 27.41 34.15 6.9 8.79 16.65 21.38 21.65 27.98 5 6.59 15.8 21.18 23.99 32.41 8.19 11.24 17.84 24.13 21.45 28.64 3.61 4.52 7.16 8.22 7.9 8.22 0.73 0 2.3-1.7 3.49-3.77 1.19-2.08 4.34-8.77 6.99-14.88 2.65-6.11 6.52-15.7 8.59-21.32 2.07-5.61 5.93-16.4 8.57-23.97 2.65-7.58 7.23-21.56 10.18-31.09 2.95-9.52 7.9-27.31 11.01-39.52 3.1-12.21 7.25-29.4 9.22-38.19 1.97-8.79 5.2-25.18 7.18-36.41 1.98-11.24 5.01-30.22 6.74-42.19 1.72-11.96 4.3-33.35 5.73-47.51 1.42-14.17 3.4-36.95 4.4-50.62 0.99-13.68 2.21-32.66 2.7-42.19 0.48-9.53 0.88-30.91 0.88-47.51 0-16.61-0.4-41.19-0.89-54.62-0.49-13.44-1.69-35.22-2.68-48.41-0.99-13.18-2.79-35.17-4.01-48.84-1.22-13.68-3.03-32.06-4.01-40.86-0.99-8.79-3.4-26.97-5.37-40.41-1.96-13.43-5.15-34.01-7.08-45.73-1.94-11.73-4.93-28.91-6.66-38.19-1.73-9.28-5.74-29.07-8.92-43.96-3.17-14.9-7.92-36.28-10.54-47.52-2.62-11.23-8.61-34.81-13.32-52.4-4.7-17.58-11.36-41.76-14.79-53.73-3.43-11.97-9.63-32.55-13.78-45.74-4.15-13.19-11.07-34.57-15.37-47.51-4.3-12.95-12.11-35.33-17.35-49.74-5.24-14.41-14.44-38.98-20.43-54.61-6-15.64-15.11-38.62-20.25-51.07-5.14-12.46-13.13-31.44-17.75-42.19-4.62-10.74-11.2-25.93-14.62-33.75-3.42-7.81-12.22-27.19-19.55-43.07-7.32-15.87-17.78-38.26-23.24-49.73-5.45-11.48-15.83-32.46-23.06-46.63-7.23-14.17-19.65-37.95-27.61-52.84-7.97-14.9-22.07-40.68-31.35-57.29-9.29-16.6-24.55-43.58-33.94-59.94-9.38-16.37-22.78-39.35-29.77-51.07-7-11.72-17.71-29.31-23.8-39.08-6.09-9.77-16.95-26.95-24.13-38.19-7.18-11.23-15.37-24.02-18.21-28.42-2.84-4.39-11.56-17.78-19.38-29.75-7.82-11.97-24.61-37.15-37.31-55.95-12.71-18.81-29.7-43.79-37.77-55.51-8.06-11.72-21.24-30.71-29.29-42.18-8.04-11.48-20.45-28.67-27.57-38.19-7.13-9.53-16.91-22.32-21.74-28.42-4.83-6.11-10.24-12.61-12-14.45-1.77-1.84-3.92-3.34-4.77-3.33-0.86 0.01-1.56 0.61-1.56 1.35zm1086.54-26.97c-3.86 3.05-12.62 10.41-19.46 16.36-6.84 5.95-16.03 14.11-20.43 18.15-4.4 4.03-18.71 17.97-31.82 30.98-13.1 13-31.15 31.64-40.1 41.41-8.95 9.77-24.16 26.95-33.8 38.19-9.64 11.23-24.41 29.02-32.81 39.52-8.4 10.5-21.14 26.79-28.3 36.19-7.16 9.4-17.93 23.79-23.93 31.97-6.01 8.18-14.94 20.67-19.86 27.75-4.91 7.09-14.12 20.68-20.47 30.2-6.34 9.53-16.72 25.51-23.06 35.53-6.34 10.01-15.33 24.6-19.98 32.41-4.64 7.82-12.25 21.01-16.9 29.31-4.65 8.3-14.18 25.69-21.18 38.63-6.99 12.95-18.4 34.93-25.35 48.85-6.95 13.92-16.91 34.5-22.15 45.74-5.24 11.23-13.51 29.42-18.39 40.41-4.88 10.99-11.26 25.97-14.18 33.3-2.93 7.33-7.92 20.12-11.11 28.42-3.19 8.3-10.09 27.09-15.34 41.74-5.25 14.66-13.57 39.23-18.5 54.62-4.92 15.39-10.78 34.17-13.02 41.74-2.25 7.57-4.29 15.77-4.55 18.21-0.32 2.94 0.11 6.69 1.27 11.1 0.96 3.66 3.62 11.06 5.91 16.43 2.29 5.37 10.88 23.56 19.08 40.41 8.21 16.85 17.41 36.04 20.44 42.63 3.04 6.59 10.93 24.18 17.54 39.08 6.6 14.9 16.91 39.47 22.91 54.62 5.99 15.14 14.29 36.92 18.43 48.4 4.15 11.48 9.22 26.07 11.27 32.42 2.05 6.35 6.27 20.33 9.36 31.08 3.1 10.75 7.63 27.53 10.07 37.3 2.44 9.77 6.25 26.95 8.46 38.19 2.2 11.23 5.26 27.82 6.8 36.86 1.53 9.03 3.51 18.03 4.38 19.98l1.59 3.55c2.11-4.82 6.18-17.41 10.4-31.08 4.23-13.68 10.31-32.46 13.53-41.74 3.21-9.28 8-22.27 10.64-28.87 2.64-6.59 6.83-15.78 9.31-20.42 2.48-4.65 6.51-11.44 8.95-15.1 2.45-3.67 6.57-9.06 9.15-11.99 2.58-2.93 5.32-6.83 6.1-8.66 0.77-1.83 1.8-6.83 2.29-11.1 0.48-4.28 0.88-19.36 0.89-33.53 0-14.16 0.4-36.15 0.89-48.85 0.49-12.7 1.5-34.08 2.25-47.51 0.75-13.43 2.37-36.81 3.6-51.96 1.23-15.14 3.42-39.52 4.87-54.17 1.44-14.65 3.63-34.84 4.86-44.85 1.23-10.01 3.64-28.2 5.36-40.41 1.73-12.21 5.12-34.79 7.55-50.18 2.42-15.38 6.22-37.77 8.44-49.73 2.22-11.97 6.23-32.75 8.91-46.18 2.68-13.44 6.29-30.82 8.01-38.64 1.72-7.81 6.06-26.4 9.65-41.3 3.58-14.89 9.32-37.67 12.76-50.62 3.43-12.94 9.47-34.32 13.42-47.51 3.96-13.19 11.01-35.97 15.69-50.63 4.67-14.65 13.09-39.63 18.71-55.5 5.62-15.88 15.32-42.45 21.56-59.06 6.24-16.61 13.95-36.39 17.14-43.96 3.19-7.58 10.38-23.96 15.99-36.42 5.6-12.45 14.99-32.84 20.85-45.29 5.86-12.46 23.83-49.43 39.93-82.15 16.09-32.73 30.13-61.6 31.18-64.17 1.06-2.56 1.79-4.88 1.63-5.15-0.16-0.26-3.46 2.01-7.33 5.05zm335.78 538.83c-2.93 1.39-10.92 5.85-17.76 9.91-6.84 4.07-21.42 13.41-32.41 20.76-11 7.36-27.78 18.95-37.31 25.77-9.52 6.81-21.91 15.85-27.53 20.08-5.61 4.23-16.6 13.03-24.42 19.55-7.82 6.52-20.39 17.28-27.95 23.9-7.55 6.63-21.54 19.3-31.08 28.16-9.54 8.86-29.96 28.84-45.37 44.4-15.42 15.57-34.2 35.11-41.74 43.43-7.55 8.31-18.92 21.5-25.28 29.3-6.35 7.81-15.78 19.59-20.95 26.18-5.17 6.59-14 18.18-19.63 25.76-5.63 7.57-14.38 19.76-19.46 27.09-5.07 7.32-15.19 22.51-22.49 33.74-7.29 11.24-16.63 26.02-20.75 32.86-4.12 6.84-10.99 18.63-15.28 26.2-4.28 7.57-11.86 21.36-16.84 30.64-4.98 9.28-13.97 26.87-19.99 39.08-6.01 12.21-13.82 28.6-17.34 36.41-3.53 7.82-9.99 22.6-14.38 32.86-4.38 10.26-10.57 25.65-13.75 34.19-3.18 8.55-9.36 26.14-13.74 39.08-4.38 12.95-10.56 32.13-13.74 42.63-3.19 10.5-8.16 28.09-11.05 39.08-2.88 10.99-7.62 30.17-10.53 42.63-2.9 12.45-6.88 30.84-8.83 40.85-1.94 10.01-5.35 29-7.57 42.19-2.22 13.19-5.24 32.27-6.73 42.4-1.48 10.14-3.47 26.13-4.42 35.53-0.95 9.4-2.35 25.49-3.1 35.75-0.76 10.25-1.97 29.04-2.7 41.74-0.72 12.7-1.77 38.28-2.33 56.84-0.56 18.56-0.82 47.33-0.57 63.94 0.32 22.25 0.76 31.13 1.66 33.75 0.98 2.88 1.68 3.59 3.66 3.77 1.48 0.14 4.28-0.88 7.1-2.58 2.56-1.54 8.26-5.64 12.65-9.1 4.4-3.47 16.19-13.27 26.2-21.8 10.02-8.52 27.6-23.72 39.08-33.77 11.48-10.05 34.26-30.07 50.63-44.49 16.36-14.41 73.71-65.12 127.44-112.68l97.69-86.46c0.91-95.81 1.61-134.22 2.15-147.16 0.55-12.95 1.4-28.73 1.9-35.08 0.5-6.35 1.91-20.74 3.14-31.98 1.23-11.23 3.62-30.81 5.31-43.51 1.69-12.7 4.48-31.29 6.2-41.3 1.71-10.01 6.29-33.99 10.16-53.29 3.87-19.29 9.22-43.87 11.89-54.62 2.67-10.74 7.12-27.73 9.87-37.74 2.76-10.02 6.03-21.61 7.26-25.76 1.23-4.15 4.58-15.14 7.44-24.42 2.87-9.28 9.58-29.46 14.91-44.85 5.34-15.39 12.21-34.57 15.26-42.63 3.06-8.06 9.26-23.25 13.77-33.75 4.51-10.5 10.6-24.49 13.54-31.08 2.93-6.6 9.7-20.98 15.03-31.98 5.34-10.99 14.24-28.57 19.77-39.07 5.53-10.5 14.07-26.09 18.96-34.64 4.89-8.55 13.17-22.53 18.38-31.08 5.22-8.55 12.68-20.54 16.6-26.65 3.91-6.1 10.23-15.89 14.05-21.76 3.82-5.86 9.08-14.15 11.69-18.42 2.6-4.28 4.74-8.37 4.74-9.11 0-0.73-0.6-1.53-1.34-1.77-0.73-0.25-2.03-0.45-2.88-0.45-0.86 0-3.96 1.14-6.89 2.53z"/>
	<g id="Layer 1">
	</g>
</svg>